<svg xmlns="http://www.w3.org/2000/svg" width="24" height="24"><g id="_play_circle_filled_white" data-name=" play_circle_filled_white" transform="translate(-814 -950)"><rect id="Rectangle_Copy_64" data-name="Rectangle Copy 64" width="24" height="24" transform="translate(814 950)" fill="rgba(0,0,0,0)"/><path id="Icon" d="M826,972a10,10,0,1,1,10-10A10.011,10.011,0,0,1,826,972Zm-1.5-14a.5.5,0,0,0-.5.5v7a.5.5,0,0,0,.5.5.489.489,0,0,0,.3-.1l4.67-3.5a.5.5,0,0,0,0-.8l-4.67-3.5A.489.489,0,0,0,824.5,958Z" fill="#0080cc"/></g></svg>