<svg xmlns="http://www.w3.org/2000/svg" width="23.054" height="23.058" viewBox="0 0 23.054 23.058"><path d="M21.626 23.058a1.407 1.407 0 0 1-1-.416L14.867 16.9v-1.071l-.365-.378a8.81 8.81 0 0 1-5.727 2.126 9.069 9.069 0 0 1-1.492-.125A8.791 8.791 0 0 1 8.781 0a9.147 9.147 0 0 1 1.111.068 8.776 8.776 0 0 1 5.556 14.437l.378.364H16.9l5.745 5.759a1.416 1.416 0 0 1 0 2l-.013.013a1.407 1.407 0 0 1-1.006.417zM8.784 2.7a6.083 6.083 0 1 0 6.083 6.083A6.09 6.09 0 0 0 8.784 2.7zm0 9.461a.669.669 0 0 1-.677-.675V9.463H6.081a.676.676 0 1 1 0-1.352h2.027V6.083a.676.676 0 0 1 1.353 0v2.028h2.027a.676.676 0 1 1 0 1.352H9.46v2.028a.669.669 0 0 1-.676.675z" fill="#005384"/></svg>